<svg width="34" height="34" viewBox="0 0 34 34" fill="none" xmlns="http://www.w3.org/2000/svg">
<path d="M17.3953 2.21266C17.1416 2.1105 16.8584 2.1105 16.6047 2.21266L3.92275 7.30952L9.03125 9.36151L22.1085 4.10664L17.3953 2.21266ZM24.9688 5.25754L11.8915 10.5124L17 12.5644L30.0773 7.30952L24.9688 5.25754ZM31.875 8.88748L18.0625 14.4391V31.3547L31.875 25.803V8.88748ZM15.9375 31.3568V14.437L2.125 8.88748V25.8051L15.9375 31.3568ZM15.8164 0.229008C16.5762 -0.0763359 17.4238 -0.0763359 18.1836 0.229008L33.3327 6.31876C33.5297 6.39808 33.6985 6.53484 33.8174 6.71142C33.9364 6.888 34 7.09631 34 7.30952V25.8051C33.9997 26.2318 33.8723 26.6486 33.634 27.0018C33.3958 27.355 33.0577 27.6284 32.6634 27.7866L17.3953 33.9234C17.1416 34.0255 16.8584 34.0255 16.6047 33.9234L1.33875 27.7866C0.944034 27.6287 0.605503 27.3555 0.366864 27.0022C0.128226 26.649 0.00043845 26.232 0 25.8051L0 7.30952C4.93849e-05 7.09631 0.0636305 6.888 0.182552 6.71142C0.301474 6.53484 0.470289 6.39808 0.66725 6.31876L15.8164 0.229008Z" fill="#00B853"/>
</svg>
