<svg width="348" height="39" viewBox="0 0 348 39" fill="none" xmlns="http://www.w3.org/2000/svg">
<rect x="32.7227" y="34" width="282.555" height="1" fill="#CACACA"/>
<g clip-path="url(#clip0_4303_5224)">
<path d="M9.49066 12.192H15.4907V13.584H9.49066V12.192ZM9.49066 14.72H15.4907V16.128H9.49066V14.72ZM9.45866 17.248H16.2267V18.832H9.45866V17.248ZM7.10666 5.904H16.1467V8.832H14.4507V7.52H8.73866V8.832H7.10666V5.904ZM11.6667 10.848H13.4267V18H11.6667V10.848ZM10.0827 9.52H15.8427V11.12H10.0827V19.456H8.29066V11.184L9.90666 9.52H10.0827ZM10.9307 4.4L12.7547 4.736C11.8907 8.208 10.2907 10.976 7.93866 12.704C7.68266 12.336 7.02666 11.584 6.64266 11.264C8.83466 9.824 10.2587 7.392 10.9307 4.4ZM12.6427 7.904L14.4187 8.272C14.0027 9.152 13.5707 10.016 13.2187 10.608L11.7787 10.24C12.0987 9.584 12.4667 8.608 12.6427 7.904ZM1.47466 5.36H7.25066V7.104H1.47466V5.36ZM3.28266 10.064H6.99466V17.52H3.28266V15.872H5.37866V11.728H3.28266V10.064ZM3.12266 6.288L4.93066 6.576C4.45066 10.032 3.58666 13.424 1.95466 15.6C1.77866 15.152 1.26666 14.176 0.930656 13.744C2.17866 11.984 2.80266 9.216 3.12266 6.288ZM2.53066 10.064H4.08266V18.752H2.53066V10.064ZM26.2907 5.696H28.0187C27.7147 8.304 27.0107 10.944 24.0667 12.496C23.8587 12.064 23.3627 11.44 22.9787 11.136C25.5707 9.904 26.0507 7.696 26.2907 5.696ZM23.5227 8.432L24.4187 7.104C26.0027 7.584 27.8747 8.464 28.9467 9.152L28.0347 10.624C26.9947 9.872 25.0907 8.928 23.5227 8.432ZM29.9387 5.04H31.7307C31.7307 5.04 31.7307 5.52 31.7147 5.744C31.5547 9.392 31.3947 10.896 30.9627 11.408C30.6587 11.808 30.3547 11.952 29.8907 12.016C29.5067 12.08 28.8507 12.08 28.1467 12.064C28.1307 11.536 27.9387 10.816 27.6827 10.352C28.2267 10.4 28.7067 10.4 28.9467 10.4C29.1547 10.416 29.2987 10.368 29.4267 10.208C29.6827 9.904 29.8267 8.688 29.9387 5.328V5.04ZM25.2827 13.664H27.0427V17.168C27.0427 17.616 27.0747 17.664 27.3787 17.664C27.5227 17.664 28.0507 17.664 28.2107 17.664C28.5147 17.664 28.5787 17.472 28.6267 15.984C28.9627 16.272 29.7147 16.544 30.1947 16.672C30.0187 18.784 29.5547 19.328 28.4027 19.328C28.1147 19.328 27.3787 19.328 27.0747 19.328C25.5867 19.328 25.2827 18.8 25.2827 17.2V13.664ZM23.6507 14.288L25.1547 14.688C25.0107 16.128 24.7067 17.648 23.9387 18.592L22.5307 17.728C23.1867 16.928 23.5067 15.6 23.6507 14.288ZM25.6347 12.56L26.7387 11.456C27.7627 11.968 29.0267 12.8 29.6187 13.472L28.4347 14.72C27.8747 14.064 26.6587 13.152 25.6347 12.56ZM29.1707 14.544L30.7227 13.92C31.5547 15.136 32.2587 16.768 32.4667 17.904L30.7867 18.592C30.6107 17.472 29.9547 15.776 29.1707 14.544ZM23.7307 5.04H30.7547V6.64H23.7307V5.04ZM17.9227 9.328H22.6107V10.768H17.9227V9.328ZM17.9707 4.912H22.5627V6.368H17.9707V4.912ZM17.9227 11.504H22.6107V12.96H17.9227V11.504ZM17.1867 7.072H23.0427V8.592H17.1867V7.072ZM18.7547 13.728H22.6267V18.592H18.7547V17.072H21.0267V15.248H18.7547V13.728ZM17.8907 13.728H19.4587V19.232H17.8907V13.728ZM40.0347 5.68H48.2427V7.52H40.0347V5.68ZM43.5227 6.432H45.4747V17.168C45.4747 18.256 45.2667 18.784 44.5787 19.088C43.9067 19.392 42.8827 19.44 41.4587 19.44C41.3947 18.896 41.0747 18.032 40.8187 17.472C41.7787 17.52 42.8027 17.52 43.1227 17.52C43.4267 17.52 43.5227 17.424 43.5227 17.152V6.432ZM33.9707 9.328H39.1387V10.768H33.9707V9.328ZM34.0667 4.912H39.1707V6.368H34.0667V4.912ZM33.9707 11.504H39.1387V12.96H33.9707V11.504ZM33.1867 7.072H39.7787V8.592H33.1867V7.072ZM34.8507 13.728H39.0907V18.592H34.8507V17.072H37.4107V15.248H34.8507V13.728ZM33.9227 13.728H35.5867V19.232H33.9227V13.728ZM55.6507 9.76H57.6507V19.44H55.6507V9.76ZM52.9627 12.592V13.456H60.5307V12.592H52.9627ZM52.9627 10.368V11.216H60.5307V10.368H52.9627ZM51.0747 8.896H62.4987V14.928H51.0747V8.896ZM49.5707 15.76H63.9067V17.408H49.5707V15.76ZM52.2107 6.192V7.12H54.4667V6.192H52.2107ZM50.4987 5.04H56.2587V8.256H50.4987V5.04ZM58.9147 6.192V7.12H61.2187V6.192H58.9147ZM57.2187 5.04H63.0107V8.256H57.2187V5.04Z" fill="#CACACA"/>
<circle cx="32.7227" cy="34" r="5" fill="#CACACA"/>
</g>
<g clip-path="url(#clip1_4303_5224)">
<path d="M147.568 5.536H157.28V7.088H147.568V5.536ZM147.072 14.88H157.52V16.48H147.072V14.88ZM151.456 4.416H153.328V8.576H151.456V4.416ZM150.48 10.704V11.328H154.336V10.704H150.48ZM150.48 12.432V13.056H154.336V12.432H150.48ZM150.48 8.992V9.6H154.336V8.992H150.48ZM148.736 7.824H156.16V14.24H148.736V7.824ZM152.976 17.296L154.304 16.368C155.488 17.04 156.864 17.936 157.648 18.56L155.872 19.44C155.232 18.848 154.048 17.952 152.976 17.296ZM150 16.448L151.808 17.056C150.864 18.032 149.312 18.928 148 19.472C147.68 19.104 146.992 18.432 146.576 18.128C147.888 17.744 149.248 17.12 150 16.448ZM142.704 8.24H147.552V10.048H142.704V8.24ZM144.32 4.656H146.112V15.28H144.32V4.656ZM142.352 15.12C143.664 14.656 145.664 13.84 147.568 13.04L148.016 14.816C146.352 15.616 144.528 16.416 143.072 17.056L142.352 15.12ZM165.024 4.432H166.944V6.608H165.024V4.432ZM159.056 5.52H172.944V8.832H171.12V7.168H160.784V8.832H159.056V5.52ZM164.656 7.312L165.792 8.48C164.688 8.944 163.248 9.28 162.032 9.472C161.968 9.168 161.76 8.64 161.584 8.32C162.672 8.08 163.92 7.696 164.656 7.312ZM160.992 8.016L162.688 8.336V12.64H160.992V8.016ZM160.992 11.84H169.248V9.312H166.352V8.016H170.992V13.152H160.992V11.84ZM161.504 9.936H165.36V11.2H161.504V9.936ZM166.608 9.936H170.048V11.2H166.608V9.936ZM163.104 12.384L164.8 12.88C163.696 14.768 161.712 16.256 159.648 17.152C159.424 16.768 158.88 16 158.544 15.648C160.432 14.992 162.224 13.84 163.104 12.384ZM162.848 13.872H171.216V15.376H161.328L162.848 13.872ZM170.624 13.872H172.512C172.512 13.872 172.496 14.32 172.48 14.544C172.336 17.184 172.16 18.336 171.76 18.8C171.408 19.184 171.024 19.296 170.544 19.36C170.096 19.424 169.344 19.408 168.528 19.392C168.496 18.88 168.304 18.176 168.016 17.728C168.688 17.792 169.328 17.808 169.6 17.792C169.856 17.808 170 17.792 170.144 17.648C170.384 17.392 170.512 16.464 170.624 14.112V13.872ZM161.2 15.664L162.72 16.128C162.496 17.28 162.112 18.48 161.328 19.216L159.904 18.432C160.592 17.776 161.008 16.704 161.2 15.664ZM163.2 16.08L164.64 15.92C164.928 16.832 165.136 18 165.12 18.752L163.584 18.944C163.632 18.208 163.472 17.008 163.2 16.08ZM165.376 16.112L166.704 15.776C167.104 16.512 167.456 17.472 167.536 18.096L166.128 18.48C166.048 17.84 165.744 16.864 165.376 16.112ZM167.456 16.032L168.688 15.504C169.136 15.952 169.584 16.592 169.776 17.056L168.48 17.632C168.32 17.184 167.872 16.496 167.456 16.032ZM175.264 5.952L176.096 4.656C177.168 4.912 178.688 5.424 179.488 5.808L178.624 7.264C177.888 6.864 176.368 6.288 175.264 5.952ZM174.56 8.672C175.744 8.448 177.472 8.032 179.168 7.648L179.344 9.152C177.952 9.568 176.48 10 175.28 10.336L174.56 8.672ZM181.648 5.488H187.792V6.832H180.576L181.648 5.488ZM187.344 5.488H187.616L187.904 5.424L189.168 5.744C188.752 6.624 188.176 7.584 187.648 8.176L186.16 7.728C186.592 7.216 187.072 6.384 187.344 5.696V5.488ZM183.28 6.048H185.008C184.688 8.336 183.792 9.712 180.208 10.432C180.048 10.048 179.648 9.408 179.328 9.072C182.416 8.592 183.04 7.664 183.28 6.048ZM184.896 6.464C185.168 7.648 185.872 8.688 189.504 9.104C189.152 9.488 188.736 10.208 188.56 10.688C184.56 10.048 183.776 8.304 183.36 6.608L184.896 6.464ZM181.6 4.416L183.28 4.688C182.656 5.968 181.872 7.136 180.656 8.128C180.32 7.792 179.664 7.392 179.216 7.216C180.384 6.416 181.168 5.344 181.6 4.416ZM178.592 13.12V13.808H185.552V13.12H178.592ZM178.592 14.896V15.6H185.552V14.896H178.592ZM178.592 11.36V12.032H185.552V11.36H178.592ZM176.736 10.208H187.488V16.736H176.736V10.208ZM182.896 17.568L184.496 16.656C186.176 17.264 188.16 18.064 189.296 18.624L187.056 19.488C186.16 18.944 184.512 18.176 182.896 17.568ZM179.344 16.608L181.104 17.392C179.792 18.24 177.712 19.04 176.08 19.504C175.744 19.12 175.088 18.416 174.656 18.096C176.352 17.776 178.256 17.216 179.344 16.608ZM193.024 4.496H194.8V19.408H193.024V4.496ZM190.608 9.744H197.168V11.536H190.608V9.744ZM192.688 10.704L193.744 11.216C193.232 13.36 192.24 16.144 191.184 17.68C191.008 17.088 190.592 16.24 190.304 15.696C191.264 14.512 192.24 12.288 192.688 10.704ZM194.768 11.632C195.232 12.048 196.784 13.904 197.136 14.352L195.952 15.856C195.536 14.944 194.464 13.168 193.888 12.384L194.768 11.632ZM190.576 5.728L191.92 5.376C192.336 6.544 192.656 8.064 192.736 9.072L191.296 9.456C191.264 8.448 190.96 6.896 190.576 5.728ZM195.856 5.296L197.472 5.648C197.056 6.944 196.576 8.464 196.176 9.408L194.976 9.072C195.296 8.048 195.68 6.432 195.856 5.296ZM201.904 4.4H203.712V19.424H201.904V4.4ZM197.12 14.416L205.344 12.944L205.632 14.72L197.424 16.208L197.12 14.416ZM198.032 6.592L198.976 5.28C199.872 5.824 201.008 6.624 201.536 7.216L200.528 8.672C200.048 8.048 198.928 7.168 198.032 6.592ZM197.312 10.624L198.208 9.248C199.136 9.744 200.336 10.512 200.912 11.104L199.952 12.624C199.408 12.032 198.24 11.168 197.312 10.624Z" fill="#CACACA"/>
<circle cx="174" cy="34" r="5" fill="#CACACA"/>
</g>
<g clip-path="url(#clip2_4303_5224)">
<path d="M287.085 8.96H295.389V10.688H287.085V8.96ZM284.109 11.84H298.445V13.648H284.109V11.84ZM287.981 13.28H290.061C289.757 16.256 288.989 18.368 284.765 19.488C284.573 18.976 284.077 18.176 283.645 17.776C287.309 16.96 287.741 15.472 287.981 13.28ZM292.109 12.976H294.045V16.88C294.045 17.392 294.141 17.472 294.701 17.472C294.957 17.472 295.997 17.472 296.301 17.472C296.829 17.472 296.925 17.2 296.989 15.52C297.373 15.824 298.205 16.128 298.701 16.256C298.509 18.592 297.997 19.2 296.477 19.2C296.109 19.2 294.797 19.2 294.429 19.2C292.557 19.2 292.109 18.64 292.109 16.912V12.976ZM290.205 4.432H292.253V7.328H290.205V4.432ZM284.397 5.968H298.141V9.776H296.077V7.776H286.349V9.776H284.397V5.968ZM302.173 10.432H305.869V12.192H302.173V10.432ZM305.133 10.432H307.005C307.005 10.432 306.989 10.912 306.989 11.136C306.925 14.528 306.845 15.952 306.477 16.448C306.157 16.848 305.837 16.992 305.373 17.072C304.941 17.136 304.253 17.136 303.501 17.12C303.469 16.56 303.261 15.808 302.973 15.328C303.549 15.392 304.093 15.392 304.349 15.392C304.573 15.392 304.717 15.36 304.845 15.2C305.037 14.944 305.101 13.824 305.133 10.72V10.432ZM309.949 5.424L311.101 4.256C311.981 4.72 313.165 5.456 313.741 5.984L312.509 7.28C311.981 6.72 310.845 5.936 309.949 5.424ZM311.837 9.536L313.773 10C312.429 14.176 310.077 17.424 306.909 19.376C306.621 18.976 305.917 18.176 305.517 17.792C308.589 16.144 310.733 13.248 311.837 9.536ZM302.285 6.816H314.621V8.704H302.285V6.816ZM301.005 6.816H303.021V11.52C303.021 13.92 302.749 17.472 301.293 19.632C300.973 19.248 300.109 18.544 299.661 18.32C300.893 16.4 301.005 13.6 301.005 11.504V6.816ZM307.501 4.432H309.517C309.405 10.96 310.877 17.376 312.493 17.376C312.861 17.376 313.053 16.56 313.149 14.544C313.581 14.992 314.269 15.44 314.781 15.632C314.477 18.608 313.837 19.328 312.333 19.328C308.845 19.328 307.549 11.728 307.501 4.432ZM322.589 5.68H330.797V7.52H322.589V5.68ZM326.077 6.432H328.029V17.168C328.029 18.256 327.821 18.784 327.133 19.088C326.461 19.392 325.437 19.44 324.013 19.44C323.949 18.896 323.629 18.032 323.373 17.472C324.333 17.52 325.357 17.52 325.677 17.52C325.981 17.52 326.077 17.424 326.077 17.152V6.432ZM316.525 9.328H321.693V10.768H316.525V9.328ZM316.621 4.912H321.725V6.368H316.621V4.912ZM316.525 11.504H321.693V12.96H316.525V11.504ZM315.741 7.072H322.333V8.592H315.741V7.072ZM317.405 13.728H321.645V18.592H317.405V17.072H319.965V15.248H317.405V13.728ZM316.477 13.728H318.141V19.232H316.477V13.728ZM338.205 9.76H340.205V19.44H338.205V9.76ZM335.517 12.592V13.456H343.085V12.592H335.517ZM335.517 10.368V11.216H343.085V10.368H335.517ZM333.629 8.896H345.053V14.928H333.629V8.896ZM332.125 15.76H346.461V17.408H332.125V15.76ZM334.765 6.192V7.12H337.021V6.192H334.765ZM333.053 5.04H338.813V8.256H333.053V5.04ZM341.469 6.192V7.12H343.773V6.192H341.469ZM339.773 5.04H345.565V8.256H339.773V5.04Z" fill="url(#paint0_linear_4303_5224)"/>
<circle cx="315.277" cy="34" r="5" fill="url(#paint1_linear_4303_5224)"/>
</g>
<defs>
<linearGradient id="paint0_linear_4303_5224" x1="283.277" y1="12" x2="347.277" y2="12" gradientUnits="userSpaceOnUse">
<stop stop-color="#FF9F51"/>
<stop offset="1" stop-color="#F9D024"/>
</linearGradient>
<linearGradient id="paint1_linear_4303_5224" x1="310.277" y1="34" x2="320.277" y2="34" gradientUnits="userSpaceOnUse">
<stop stop-color="#FF9F51"/>
<stop offset="1" stop-color="#F9D024"/>
</linearGradient>
<clipPath id="clip0_4303_5224">
<rect width="64" height="39" fill="white" transform="translate(0.722656)"/>
</clipPath>
<clipPath id="clip1_4303_5224">
<rect width="64" height="39" fill="white" transform="translate(142)"/>
</clipPath>
<clipPath id="clip2_4303_5224">
<rect width="64" height="39" fill="white" transform="translate(283.277)"/>
</clipPath>
</defs>
</svg>
