<svg width="390" height="103" viewBox="0 0 390 103" fill="none" xmlns="http://www.w3.org/2000/svg">
<rect width="390" height="103" fill="white"/>
<rect x="80" y="66" width="230" height="1" fill="#CACACA"/>
<g clip-path="url(#clip0_4303_5688)">
<path d="M30.4907 44.192H36.4907V45.584H30.4907V44.192ZM30.4907 46.72H36.4907V48.128H30.4907V46.72ZM30.4587 49.248H37.2267V50.832H30.4587V49.248ZM28.1067 37.904H37.1467V40.832H35.4507V39.52H29.7387V40.832H28.1067V37.904ZM32.6667 42.848H34.4267V50H32.6667V42.848ZM31.0827 41.52H36.8427V43.12H31.0827V51.456H29.2907V43.184L30.9067 41.52H31.0827ZM31.9307 36.4L33.7547 36.736C32.8907 40.208 31.2907 42.976 28.9387 44.704C28.6827 44.336 28.0267 43.584 27.6427 43.264C29.8347 41.824 31.2587 39.392 31.9307 36.4ZM33.6427 39.904L35.4187 40.272C35.0027 41.152 34.5707 42.016 34.2187 42.608L32.7787 42.24C33.0987 41.584 33.4667 40.608 33.6427 39.904ZM22.4747 37.36H28.2507V39.104H22.4747V37.36ZM24.2827 42.064H27.9947V49.52H24.2827V47.872H26.3787V43.728H24.2827V42.064ZM24.1227 38.288L25.9307 38.576C25.4507 42.032 24.5867 45.424 22.9547 47.6C22.7787 47.152 22.2667 46.176 21.9307 45.744C23.1787 43.984 23.8027 41.216 24.1227 38.288ZM23.5307 42.064H25.0827V50.752H23.5307V42.064ZM47.2907 37.696H49.0187C48.7147 40.304 48.0107 42.944 45.0667 44.496C44.8587 44.064 44.3627 43.44 43.9787 43.136C46.5707 41.904 47.0507 39.696 47.2907 37.696ZM44.5227 40.432L45.4187 39.104C47.0027 39.584 48.8747 40.464 49.9467 41.152L49.0347 42.624C47.9947 41.872 46.0907 40.928 44.5227 40.432ZM50.9387 37.04H52.7307C52.7307 37.04 52.7307 37.52 52.7147 37.744C52.5547 41.392 52.3947 42.896 51.9627 43.408C51.6587 43.808 51.3547 43.952 50.8907 44.016C50.5067 44.08 49.8507 44.08 49.1467 44.064C49.1307 43.536 48.9387 42.816 48.6827 42.352C49.2267 42.4 49.7067 42.4 49.9467 42.4C50.1547 42.416 50.2987 42.368 50.4267 42.208C50.6827 41.904 50.8267 40.688 50.9387 37.328V37.04ZM46.2827 45.664H48.0427V49.168C48.0427 49.616 48.0747 49.664 48.3787 49.664C48.5227 49.664 49.0507 49.664 49.2107 49.664C49.5147 49.664 49.5787 49.472 49.6267 47.984C49.9627 48.272 50.7147 48.544 51.1947 48.672C51.0187 50.784 50.5547 51.328 49.4027 51.328C49.1147 51.328 48.3787 51.328 48.0747 51.328C46.5867 51.328 46.2827 50.8 46.2827 49.2V45.664ZM44.6507 46.288L46.1547 46.688C46.0107 48.128 45.7067 49.648 44.9387 50.592L43.5307 49.728C44.1867 48.928 44.5067 47.6 44.6507 46.288ZM46.6347 44.56L47.7387 43.456C48.7627 43.968 50.0267 44.8 50.6187 45.472L49.4347 46.72C48.8747 46.064 47.6587 45.152 46.6347 44.56ZM50.1707 46.544L51.7227 45.92C52.5547 47.136 53.2587 48.768 53.4667 49.904L51.7867 50.592C51.6107 49.472 50.9547 47.776 50.1707 46.544ZM44.7307 37.04H51.7547V38.64H44.7307V37.04ZM38.9227 41.328H43.6107V42.768H38.9227V41.328ZM38.9707 36.912H43.5627V38.368H38.9707V36.912ZM38.9227 43.504H43.6107V44.96H38.9227V43.504ZM38.1867 39.072H44.0427V40.592H38.1867V39.072ZM39.7547 45.728H43.6267V50.592H39.7547V49.072H42.0267V47.248H39.7547V45.728ZM38.8907 45.728H40.4587V51.232H38.8907V45.728ZM61.0347 37.68H69.2427V39.52H61.0347V37.68ZM64.5227 38.432H66.4747V49.168C66.4747 50.256 66.2667 50.784 65.5787 51.088C64.9067 51.392 63.8827 51.44 62.4587 51.44C62.3947 50.896 62.0747 50.032 61.8187 49.472C62.7787 49.52 63.8027 49.52 64.1227 49.52C64.4267 49.52 64.5227 49.424 64.5227 49.152V38.432ZM54.9707 41.328H60.1387V42.768H54.9707V41.328ZM55.0667 36.912H60.1707V38.368H55.0667V36.912ZM54.9707 43.504H60.1387V44.96H54.9707V43.504ZM54.1867 39.072H60.7787V40.592H54.1867V39.072ZM55.8507 45.728H60.0907V50.592H55.8507V49.072H58.4107V47.248H55.8507V45.728ZM54.9227 45.728H56.5867V51.232H54.9227V45.728ZM76.6507 41.76H78.6507V51.44H76.6507V41.76ZM73.9627 44.592V45.456H81.5307V44.592H73.9627ZM73.9627 42.368V43.216H81.5307V42.368H73.9627ZM72.0747 40.896H83.4987V46.928H72.0747V40.896ZM70.5707 47.76H84.9067V49.408H70.5707V47.76ZM73.2107 38.192V39.12H75.4667V38.192H73.2107ZM71.4987 37.04H77.2587V40.256H71.4987V37.04ZM79.9147 38.192V39.12H82.2187V38.192H79.9147ZM78.2187 37.04H84.0107V40.256H78.2187V37.04Z" fill="url(#paint0_linear_4303_5688)"/>
<circle cx="53.7227" cy="66" r="5" fill="url(#paint1_linear_4303_5688)"/>
</g>
<g clip-path="url(#clip1_4303_5688)">
<path d="M168.568 37.536H178.28V39.088H168.568V37.536ZM168.072 46.88H178.52V48.48H168.072V46.88ZM172.456 36.416H174.328V40.576H172.456V36.416ZM171.48 42.704V43.328H175.336V42.704H171.48ZM171.48 44.432V45.056H175.336V44.432H171.48ZM171.48 40.992V41.6H175.336V40.992H171.48ZM169.736 39.824H177.16V46.24H169.736V39.824ZM173.976 49.296L175.304 48.368C176.488 49.04 177.864 49.936 178.648 50.56L176.872 51.44C176.232 50.848 175.048 49.952 173.976 49.296ZM171 48.448L172.808 49.056C171.864 50.032 170.312 50.928 169 51.472C168.68 51.104 167.992 50.432 167.576 50.128C168.888 49.744 170.248 49.12 171 48.448ZM163.704 40.24H168.552V42.048H163.704V40.24ZM165.32 36.656H167.112V47.28H165.32V36.656ZM163.352 47.12C164.664 46.656 166.664 45.84 168.568 45.04L169.016 46.816C167.352 47.616 165.528 48.416 164.072 49.056L163.352 47.12ZM186.024 36.432H187.944V38.608H186.024V36.432ZM180.056 37.52H193.944V40.832H192.12V39.168H181.784V40.832H180.056V37.52ZM185.656 39.312L186.792 40.48C185.688 40.944 184.248 41.28 183.032 41.472C182.968 41.168 182.76 40.64 182.584 40.32C183.672 40.08 184.92 39.696 185.656 39.312ZM181.992 40.016L183.688 40.336V44.64H181.992V40.016ZM181.992 43.84H190.248V41.312H187.352V40.016H191.992V45.152H181.992V43.84ZM182.504 41.936H186.36V43.2H182.504V41.936ZM187.608 41.936H191.048V43.2H187.608V41.936ZM184.104 44.384L185.8 44.88C184.696 46.768 182.712 48.256 180.648 49.152C180.424 48.768 179.88 48 179.544 47.648C181.432 46.992 183.224 45.84 184.104 44.384ZM183.848 45.872H192.216V47.376H182.328L183.848 45.872ZM191.624 45.872H193.512C193.512 45.872 193.496 46.32 193.48 46.544C193.336 49.184 193.16 50.336 192.76 50.8C192.408 51.184 192.024 51.296 191.544 51.36C191.096 51.424 190.344 51.408 189.528 51.392C189.496 50.88 189.304 50.176 189.016 49.728C189.688 49.792 190.328 49.808 190.6 49.792C190.856 49.808 191 49.792 191.144 49.648C191.384 49.392 191.512 48.464 191.624 46.112V45.872ZM182.2 47.664L183.72 48.128C183.496 49.28 183.112 50.48 182.328 51.216L180.904 50.432C181.592 49.776 182.008 48.704 182.2 47.664ZM184.2 48.08L185.64 47.92C185.928 48.832 186.136 50 186.12 50.752L184.584 50.944C184.632 50.208 184.472 49.008 184.2 48.08ZM186.376 48.112L187.704 47.776C188.104 48.512 188.456 49.472 188.536 50.096L187.128 50.48C187.048 49.84 186.744 48.864 186.376 48.112ZM188.456 48.032L189.688 47.504C190.136 47.952 190.584 48.592 190.776 49.056L189.48 49.632C189.32 49.184 188.872 48.496 188.456 48.032ZM196.264 37.952L197.096 36.656C198.168 36.912 199.688 37.424 200.488 37.808L199.624 39.264C198.888 38.864 197.368 38.288 196.264 37.952ZM195.56 40.672C196.744 40.448 198.472 40.032 200.168 39.648L200.344 41.152C198.952 41.568 197.48 42 196.28 42.336L195.56 40.672ZM202.648 37.488H208.792V38.832H201.576L202.648 37.488ZM208.344 37.488H208.616L208.904 37.424L210.168 37.744C209.752 38.624 209.176 39.584 208.648 40.176L207.16 39.728C207.592 39.216 208.072 38.384 208.344 37.696V37.488ZM204.28 38.048H206.008C205.688 40.336 204.792 41.712 201.208 42.432C201.048 42.048 200.648 41.408 200.328 41.072C203.416 40.592 204.04 39.664 204.28 38.048ZM205.896 38.464C206.168 39.648 206.872 40.688 210.504 41.104C210.152 41.488 209.736 42.208 209.56 42.688C205.56 42.048 204.776 40.304 204.36 38.608L205.896 38.464ZM202.6 36.416L204.28 36.688C203.656 37.968 202.872 39.136 201.656 40.128C201.32 39.792 200.664 39.392 200.216 39.216C201.384 38.416 202.168 37.344 202.6 36.416ZM199.592 45.12V45.808H206.552V45.12H199.592ZM199.592 46.896V47.6H206.552V46.896H199.592ZM199.592 43.36V44.032H206.552V43.36H199.592ZM197.736 42.208H208.488V48.736H197.736V42.208ZM203.896 49.568L205.496 48.656C207.176 49.264 209.16 50.064 210.296 50.624L208.056 51.488C207.16 50.944 205.512 50.176 203.896 49.568ZM200.344 48.608L202.104 49.392C200.792 50.24 198.712 51.04 197.08 51.504C196.744 51.12 196.088 50.416 195.656 50.096C197.352 49.776 199.256 49.216 200.344 48.608ZM214.024 36.496H215.8V51.408H214.024V36.496ZM211.608 41.744H218.168V43.536H211.608V41.744ZM213.688 42.704L214.744 43.216C214.232 45.36 213.24 48.144 212.184 49.68C212.008 49.088 211.592 48.24 211.304 47.696C212.264 46.512 213.24 44.288 213.688 42.704ZM215.768 43.632C216.232 44.048 217.784 45.904 218.136 46.352L216.952 47.856C216.536 46.944 215.464 45.168 214.888 44.384L215.768 43.632ZM211.576 37.728L212.92 37.376C213.336 38.544 213.656 40.064 213.736 41.072L212.296 41.456C212.264 40.448 211.96 38.896 211.576 37.728ZM216.856 37.296L218.472 37.648C218.056 38.944 217.576 40.464 217.176 41.408L215.976 41.072C216.296 40.048 216.68 38.432 216.856 37.296ZM222.904 36.4H224.712V51.424H222.904V36.4ZM218.12 46.416L226.344 44.944L226.632 46.72L218.424 48.208L218.12 46.416ZM219.032 38.592L219.976 37.28C220.872 37.824 222.008 38.624 222.536 39.216L221.528 40.672C221.048 40.048 219.928 39.168 219.032 38.592ZM218.312 42.624L219.208 41.248C220.136 41.744 221.336 42.512 221.912 43.104L220.952 44.624C220.408 44.032 219.24 43.168 218.312 42.624Z" fill="#CACACA"/>
<circle cx="195" cy="66" r="5" fill="#CACACA"/>
</g>
<g clip-path="url(#clip2_4303_5688)">
<path d="M308.085 40.96H316.389V42.688H308.085V40.96ZM305.109 43.84H319.445V45.648H305.109V43.84ZM308.981 45.28H311.061C310.757 48.256 309.989 50.368 305.765 51.488C305.573 50.976 305.077 50.176 304.645 49.776C308.309 48.96 308.741 47.472 308.981 45.28ZM313.109 44.976H315.045V48.88C315.045 49.392 315.141 49.472 315.701 49.472C315.957 49.472 316.997 49.472 317.301 49.472C317.829 49.472 317.925 49.2 317.989 47.52C318.373 47.824 319.205 48.128 319.701 48.256C319.509 50.592 318.997 51.2 317.477 51.2C317.109 51.2 315.797 51.2 315.429 51.2C313.557 51.2 313.109 50.64 313.109 48.912V44.976ZM311.205 36.432H313.253V39.328H311.205V36.432ZM305.397 37.968H319.141V41.776H317.077V39.776H307.349V41.776H305.397V37.968ZM323.173 42.432H326.869V44.192H323.173V42.432ZM326.133 42.432H328.005C328.005 42.432 327.989 42.912 327.989 43.136C327.925 46.528 327.845 47.952 327.477 48.448C327.157 48.848 326.837 48.992 326.373 49.072C325.941 49.136 325.253 49.136 324.501 49.12C324.469 48.56 324.261 47.808 323.973 47.328C324.549 47.392 325.093 47.392 325.349 47.392C325.573 47.392 325.717 47.36 325.845 47.2C326.037 46.944 326.101 45.824 326.133 42.72V42.432ZM330.949 37.424L332.101 36.256C332.981 36.72 334.165 37.456 334.741 37.984L333.509 39.28C332.981 38.72 331.845 37.936 330.949 37.424ZM332.837 41.536L334.773 42C333.429 46.176 331.077 49.424 327.909 51.376C327.621 50.976 326.917 50.176 326.517 49.792C329.589 48.144 331.733 45.248 332.837 41.536ZM323.285 38.816H335.621V40.704H323.285V38.816ZM322.005 38.816H324.021V43.52C324.021 45.92 323.749 49.472 322.293 51.632C321.973 51.248 321.109 50.544 320.661 50.32C321.893 48.4 322.005 45.6 322.005 43.504V38.816ZM328.501 36.432H330.517C330.405 42.96 331.877 49.376 333.493 49.376C333.861 49.376 334.053 48.56 334.149 46.544C334.581 46.992 335.269 47.44 335.781 47.632C335.477 50.608 334.837 51.328 333.333 51.328C329.845 51.328 328.549 43.728 328.501 36.432ZM343.589 37.68H351.797V39.52H343.589V37.68ZM347.077 38.432H349.029V49.168C349.029 50.256 348.821 50.784 348.133 51.088C347.461 51.392 346.437 51.44 345.013 51.44C344.949 50.896 344.629 50.032 344.373 49.472C345.333 49.52 346.357 49.52 346.677 49.52C346.981 49.52 347.077 49.424 347.077 49.152V38.432ZM337.525 41.328H342.693V42.768H337.525V41.328ZM337.621 36.912H342.725V38.368H337.621V36.912ZM337.525 43.504H342.693V44.96H337.525V43.504ZM336.741 39.072H343.333V40.592H336.741V39.072ZM338.405 45.728H342.645V50.592H338.405V49.072H340.965V47.248H338.405V45.728ZM337.477 45.728H339.141V51.232H337.477V45.728ZM359.205 41.76H361.205V51.44H359.205V41.76ZM356.517 44.592V45.456H364.085V44.592H356.517ZM356.517 42.368V43.216H364.085V42.368H356.517ZM354.629 40.896H366.053V46.928H354.629V40.896ZM353.125 47.76H367.461V49.408H353.125V47.76ZM355.765 38.192V39.12H358.021V38.192H355.765ZM354.053 37.04H359.813V40.256H354.053V37.04ZM362.469 38.192V39.12H364.773V38.192H362.469ZM360.773 37.04H366.565V40.256H360.773V37.04Z" fill="#CACACA"/>
<circle cx="336.277" cy="66" r="5" fill="#CACACA"/>
</g>
<defs>
<linearGradient id="paint0_linear_4303_5688" x1="21.7227" y1="44" x2="85.7227" y2="44" gradientUnits="userSpaceOnUse">
<stop stop-color="#FF9F51"/>
<stop offset="1" stop-color="#F9D024"/>
</linearGradient>
<linearGradient id="paint1_linear_4303_5688" x1="48.7227" y1="66" x2="58.7227" y2="66" gradientUnits="userSpaceOnUse">
<stop stop-color="#FF9F51"/>
<stop offset="1" stop-color="#F9D024"/>
</linearGradient>
<clipPath id="clip0_4303_5688">
<rect width="64" height="39" fill="white" transform="translate(21.7227 32)"/>
</clipPath>
<clipPath id="clip1_4303_5688">
<rect width="64" height="39" fill="white" transform="translate(163 32)"/>
</clipPath>
<clipPath id="clip2_4303_5688">
<rect width="64" height="39" fill="white" transform="translate(304.277 32)"/>
</clipPath>
</defs>
</svg>
