<svg width="1418" height="39" viewBox="0 0 1418 39" fill="none" xmlns="http://www.w3.org/2000/svg">
<rect x="37" y="34" width="1344" height="1" fill="#CACACA"/>
<g clip-path="url(#clip0_4286_2304)">
<path d="M9.17431 12.192H15.1743V13.584H9.17431V12.192ZM9.17431 14.72H15.1743V16.128H9.17431V14.72ZM9.14231 17.248H15.9103V18.832H9.14231V17.248ZM6.79031 5.904H15.8303V8.832H14.1343V7.52H8.42231V8.832H6.79031V5.904ZM11.3503 10.848H13.1103V18H11.3503V10.848ZM9.76631 9.52H15.5263V11.12H9.76631V19.456H7.97431V11.184L9.59031 9.52H9.76631ZM10.6143 4.4L12.4383 4.736C11.5743 8.208 9.97431 10.976 7.62231 12.704C7.36631 12.336 6.71031 11.584 6.32631 11.264C8.51831 9.824 9.94231 7.392 10.6143 4.4ZM12.3263 7.904L14.1023 8.272C13.6863 9.152 13.2543 10.016 12.9023 10.608L11.4623 10.24C11.7823 9.584 12.1503 8.608 12.3263 7.904ZM1.15831 5.36H6.93431V7.104H1.15831V5.36ZM2.96631 10.064H6.67831V17.52H2.96631V15.872H5.06231V11.728H2.96631V10.064ZM2.80631 6.288L4.61431 6.576C4.13431 10.032 3.27031 13.424 1.63831 15.6C1.46231 15.152 0.950311 14.176 0.614311 13.744C1.86231 11.984 2.48631 9.216 2.80631 6.288ZM2.21431 10.064H3.76631V18.752H2.21431V10.064ZM25.9743 5.696H27.7023C27.3983 8.304 26.6943 10.944 23.7503 12.496C23.5423 12.064 23.0463 11.44 22.6623 11.136C25.2543 9.904 25.7343 7.696 25.9743 5.696ZM23.2063 8.432L24.1023 7.104C25.6863 7.584 27.5583 8.464 28.6303 9.152L27.7183 10.624C26.6783 9.872 24.7743 8.928 23.2063 8.432ZM29.6223 5.04H31.4143C31.4143 5.04 31.4143 5.52 31.3983 5.744C31.2383 9.392 31.0783 10.896 30.6463 11.408C30.3423 11.808 30.0383 11.952 29.5743 12.016C29.1903 12.08 28.5343 12.08 27.8303 12.064C27.8143 11.536 27.6223 10.816 27.3663 10.352C27.9103 10.4 28.3903 10.4 28.6303 10.4C28.8383 10.416 28.9823 10.368 29.1103 10.208C29.3663 9.904 29.5103 8.688 29.6223 5.328V5.04ZM24.9663 13.664H26.7263V17.168C26.7263 17.616 26.7583 17.664 27.0623 17.664C27.2063 17.664 27.7343 17.664 27.8943 17.664C28.1983 17.664 28.2623 17.472 28.3103 15.984C28.6463 16.272 29.3983 16.544 29.8783 16.672C29.7023 18.784 29.2383 19.328 28.0863 19.328C27.7983 19.328 27.0623 19.328 26.7583 19.328C25.2703 19.328 24.9663 18.8 24.9663 17.2V13.664ZM23.3343 14.288L24.8383 14.688C24.6943 16.128 24.3903 17.648 23.6223 18.592L22.2143 17.728C22.8703 16.928 23.1903 15.6 23.3343 14.288ZM25.3183 12.56L26.4223 11.456C27.4463 11.968 28.7103 12.8 29.3023 13.472L28.1183 14.72C27.5583 14.064 26.3423 13.152 25.3183 12.56ZM28.8543 14.544L30.4063 13.92C31.2383 15.136 31.9423 16.768 32.1503 17.904L30.4703 18.592C30.2943 17.472 29.6383 15.776 28.8543 14.544ZM23.4143 5.04H30.4383V6.64H23.4143V5.04ZM17.6063 9.328H22.2943V10.768H17.6063V9.328ZM17.6543 4.912H22.2463V6.368H17.6543V4.912ZM17.6063 11.504H22.2943V12.96H17.6063V11.504ZM16.8703 7.072H22.7263V8.592H16.8703V7.072ZM18.4383 13.728H22.3103V18.592H18.4383V17.072H20.7103V15.248H18.4383V13.728ZM17.5743 13.728H19.1423V19.232H17.5743V13.728ZM39.7183 5.68H47.9263V7.52H39.7183V5.68ZM43.2063 6.432H45.1583V17.168C45.1583 18.256 44.9503 18.784 44.2623 19.088C43.5903 19.392 42.5663 19.44 41.1423 19.44C41.0783 18.896 40.7583 18.032 40.5023 17.472C41.4623 17.52 42.4863 17.52 42.8063 17.52C43.1103 17.52 43.2063 17.424 43.2063 17.152V6.432ZM33.6543 9.328H38.8223V10.768H33.6543V9.328ZM33.7503 4.912H38.8543V6.368H33.7503V4.912ZM33.6543 11.504H38.8223V12.96H33.6543V11.504ZM32.8703 7.072H39.4623V8.592H32.8703V7.072ZM34.5343 13.728H38.7743V18.592H34.5343V17.072H37.0943V15.248H34.5343V13.728ZM33.6063 13.728H35.2703V19.232H33.6063V13.728ZM55.3343 9.76H57.3343V19.44H55.3343V9.76ZM52.6463 12.592V13.456H60.2143V12.592H52.6463ZM52.6463 10.368V11.216H60.2143V10.368H52.6463ZM50.7583 8.896H62.1823V14.928H50.7583V8.896ZM49.2543 15.76H63.5903V17.408H49.2543V15.76ZM51.8943 6.192V7.12H54.1503V6.192H51.8943ZM50.1823 5.04H55.9423V8.256H50.1823V5.04ZM58.5983 6.192V7.12H60.9023V6.192H58.5983ZM56.9023 5.04H62.6943V8.256H56.9023V5.04Z" fill="url(#paint0_linear_4286_2304)"/>
<circle cx="32.4063" cy="34" r="5" fill="url(#paint1_linear_4286_2304)"/>
</g>
<g clip-path="url(#clip1_4286_2304)">
<path d="M682.568 5.536H692.28V7.088H682.568V5.536ZM682.072 14.88H692.52V16.48H682.072V14.88ZM686.456 4.416H688.328V8.576H686.456V4.416ZM685.48 10.704V11.328H689.336V10.704H685.48ZM685.48 12.432V13.056H689.336V12.432H685.48ZM685.48 8.992V9.6H689.336V8.992H685.48ZM683.736 7.824H691.16V14.24H683.736V7.824ZM687.976 17.296L689.304 16.368C690.488 17.04 691.864 17.936 692.648 18.56L690.872 19.44C690.232 18.848 689.048 17.952 687.976 17.296ZM685 16.448L686.808 17.056C685.864 18.032 684.312 18.928 683 19.472C682.68 19.104 681.992 18.432 681.576 18.128C682.888 17.744 684.248 17.12 685 16.448ZM677.704 8.24H682.552V10.048H677.704V8.24ZM679.32 4.656H681.112V15.28H679.32V4.656ZM677.352 15.12C678.664 14.656 680.664 13.84 682.568 13.04L683.016 14.816C681.352 15.616 679.528 16.416 678.072 17.056L677.352 15.12ZM700.024 4.432H701.944V6.608H700.024V4.432ZM694.056 5.52H707.944V8.832H706.12V7.168H695.784V8.832H694.056V5.52ZM699.656 7.312L700.792 8.48C699.688 8.944 698.248 9.28 697.032 9.472C696.968 9.168 696.76 8.64 696.584 8.32C697.672 8.08 698.92 7.696 699.656 7.312ZM695.992 8.016L697.688 8.336V12.64H695.992V8.016ZM695.992 11.84H704.248V9.312H701.352V8.016H705.992V13.152H695.992V11.84ZM696.504 9.936H700.36V11.2H696.504V9.936ZM701.608 9.936H705.048V11.2H701.608V9.936ZM698.104 12.384L699.8 12.88C698.696 14.768 696.712 16.256 694.648 17.152C694.424 16.768 693.88 16 693.544 15.648C695.432 14.992 697.224 13.84 698.104 12.384ZM697.848 13.872H706.216V15.376H696.328L697.848 13.872ZM705.624 13.872H707.512C707.512 13.872 707.496 14.32 707.48 14.544C707.336 17.184 707.16 18.336 706.76 18.8C706.408 19.184 706.024 19.296 705.544 19.36C705.096 19.424 704.344 19.408 703.528 19.392C703.496 18.88 703.304 18.176 703.016 17.728C703.688 17.792 704.328 17.808 704.6 17.792C704.856 17.808 705 17.792 705.144 17.648C705.384 17.392 705.512 16.464 705.624 14.112V13.872ZM696.2 15.664L697.72 16.128C697.496 17.28 697.112 18.48 696.328 19.216L694.904 18.432C695.592 17.776 696.008 16.704 696.2 15.664ZM698.2 16.08L699.64 15.92C699.928 16.832 700.136 18 700.12 18.752L698.584 18.944C698.632 18.208 698.472 17.008 698.2 16.08ZM700.376 16.112L701.704 15.776C702.104 16.512 702.456 17.472 702.536 18.096L701.128 18.48C701.048 17.84 700.744 16.864 700.376 16.112ZM702.456 16.032L703.688 15.504C704.136 15.952 704.584 16.592 704.776 17.056L703.48 17.632C703.32 17.184 702.872 16.496 702.456 16.032ZM710.264 5.952L711.096 4.656C712.168 4.912 713.688 5.424 714.488 5.808L713.624 7.264C712.888 6.864 711.368 6.288 710.264 5.952ZM709.56 8.672C710.744 8.448 712.472 8.032 714.168 7.648L714.344 9.152C712.952 9.568 711.48 10 710.28 10.336L709.56 8.672ZM716.648 5.488H722.792V6.832H715.576L716.648 5.488ZM722.344 5.488H722.616L722.904 5.424L724.168 5.744C723.752 6.624 723.176 7.584 722.648 8.176L721.16 7.728C721.592 7.216 722.072 6.384 722.344 5.696V5.488ZM718.28 6.048H720.008C719.688 8.336 718.792 9.712 715.208 10.432C715.048 10.048 714.648 9.408 714.328 9.072C717.416 8.592 718.04 7.664 718.28 6.048ZM719.896 6.464C720.168 7.648 720.872 8.688 724.504 9.104C724.152 9.488 723.736 10.208 723.56 10.688C719.56 10.048 718.776 8.304 718.36 6.608L719.896 6.464ZM716.6 4.416L718.28 4.688C717.656 5.968 716.872 7.136 715.656 8.128C715.32 7.792 714.664 7.392 714.216 7.216C715.384 6.416 716.168 5.344 716.6 4.416ZM713.592 13.12V13.808H720.552V13.12H713.592ZM713.592 14.896V15.6H720.552V14.896H713.592ZM713.592 11.36V12.032H720.552V11.36H713.592ZM711.736 10.208H722.488V16.736H711.736V10.208ZM717.896 17.568L719.496 16.656C721.176 17.264 723.16 18.064 724.296 18.624L722.056 19.488C721.16 18.944 719.512 18.176 717.896 17.568ZM714.344 16.608L716.104 17.392C714.792 18.24 712.712 19.04 711.08 19.504C710.744 19.12 710.088 18.416 709.656 18.096C711.352 17.776 713.256 17.216 714.344 16.608ZM728.024 4.496H729.8V19.408H728.024V4.496ZM725.608 9.744H732.168V11.536H725.608V9.744ZM727.688 10.704L728.744 11.216C728.232 13.36 727.24 16.144 726.184 17.68C726.008 17.088 725.592 16.24 725.304 15.696C726.264 14.512 727.24 12.288 727.688 10.704ZM729.768 11.632C730.232 12.048 731.784 13.904 732.136 14.352L730.952 15.856C730.536 14.944 729.464 13.168 728.888 12.384L729.768 11.632ZM725.576 5.728L726.92 5.376C727.336 6.544 727.656 8.064 727.736 9.072L726.296 9.456C726.264 8.448 725.96 6.896 725.576 5.728ZM730.856 5.296L732.472 5.648C732.056 6.944 731.576 8.464 731.176 9.408L729.976 9.072C730.296 8.048 730.68 6.432 730.856 5.296ZM736.904 4.4H738.712V19.424H736.904V4.4ZM732.12 14.416L740.344 12.944L740.632 14.72L732.424 16.208L732.12 14.416ZM733.032 6.592L733.976 5.28C734.872 5.824 736.008 6.624 736.536 7.216L735.528 8.672C735.048 8.048 733.928 7.168 733.032 6.592ZM732.312 10.624L733.208 9.248C734.136 9.744 735.336 10.512 735.912 11.104L734.952 12.624C734.408 12.032 733.24 11.168 732.312 10.624Z" fill="#CACACA"/>
<circle cx="709" cy="34" r="5" fill="#CACACA"/>
</g>
<g clip-path="url(#clip2_4286_2304)">
<path d="M1357.4 8.96H1365.71V10.688H1357.4V8.96ZM1354.43 11.84H1368.76V13.648H1354.43V11.84ZM1358.3 13.28H1360.38C1360.07 16.256 1359.31 18.368 1355.08 19.488C1354.89 18.976 1354.39 18.176 1353.96 17.776C1357.63 16.96 1358.06 15.472 1358.3 13.28ZM1362.43 12.976H1364.36V16.88C1364.36 17.392 1364.46 17.472 1365.02 17.472C1365.27 17.472 1366.31 17.472 1366.62 17.472C1367.15 17.472 1367.24 17.2 1367.31 15.52C1367.69 15.824 1368.52 16.128 1369.02 16.256C1368.83 18.592 1368.31 19.2 1366.79 19.2C1366.43 19.2 1365.11 19.2 1364.75 19.2C1362.87 19.2 1362.43 18.64 1362.43 16.912V12.976ZM1360.52 4.432H1362.57V7.328H1360.52V4.432ZM1354.71 5.968H1368.46V9.776H1366.39V7.776H1356.67V9.776H1354.71V5.968ZM1372.49 10.432H1376.19V12.192H1372.49V10.432ZM1375.45 10.432H1377.32C1377.32 10.432 1377.31 10.912 1377.31 11.136C1377.24 14.528 1377.16 15.952 1376.79 16.448C1376.47 16.848 1376.15 16.992 1375.69 17.072C1375.26 17.136 1374.57 17.136 1373.82 17.12C1373.79 16.56 1373.58 15.808 1373.29 15.328C1373.87 15.392 1374.41 15.392 1374.67 15.392C1374.89 15.392 1375.03 15.36 1375.16 15.2C1375.35 14.944 1375.42 13.824 1375.45 10.72V10.432ZM1380.27 5.424L1381.42 4.256C1382.3 4.72 1383.48 5.456 1384.06 5.984L1382.83 7.28C1382.3 6.72 1381.16 5.936 1380.27 5.424ZM1382.15 9.536L1384.09 10C1382.75 14.176 1380.39 17.424 1377.23 19.376C1376.94 18.976 1376.23 18.176 1375.83 17.792C1378.91 16.144 1381.05 13.248 1382.15 9.536ZM1372.6 6.816H1384.94V8.704H1372.6V6.816ZM1371.32 6.816H1373.34V11.52C1373.34 13.92 1373.07 17.472 1371.61 19.632C1371.29 19.248 1370.43 18.544 1369.98 18.32C1371.21 16.4 1371.32 13.6 1371.32 11.504V6.816ZM1377.82 4.432H1379.83C1379.72 10.96 1381.19 17.376 1382.81 17.376C1383.18 17.376 1383.37 16.56 1383.47 14.544C1383.9 14.992 1384.59 15.44 1385.1 15.632C1384.79 18.608 1384.15 19.328 1382.65 19.328C1379.16 19.328 1377.87 11.728 1377.82 4.432ZM1392.91 5.68H1401.11V7.52H1392.91V5.68ZM1396.39 6.432H1398.35V17.168C1398.35 18.256 1398.14 18.784 1397.45 19.088C1396.78 19.392 1395.75 19.44 1394.33 19.44C1394.27 18.896 1393.95 18.032 1393.69 17.472C1394.65 17.52 1395.67 17.52 1395.99 17.52C1396.3 17.52 1396.39 17.424 1396.39 17.152V6.432ZM1386.84 9.328H1392.01V10.768H1386.84V9.328ZM1386.94 4.912H1392.04V6.368H1386.94V4.912ZM1386.84 11.504H1392.01V12.96H1386.84V11.504ZM1386.06 7.072H1392.65V8.592H1386.06V7.072ZM1387.72 13.728H1391.96V18.592H1387.72V17.072H1390.28V15.248H1387.72V13.728ZM1386.79 13.728H1388.46V19.232H1386.79V13.728ZM1408.52 9.76H1410.52V19.44H1408.52V9.76ZM1405.83 12.592V13.456H1413.4V12.592H1405.83ZM1405.83 10.368V11.216H1413.4V10.368H1405.83ZM1403.95 8.896H1415.37V14.928H1403.95V8.896ZM1402.44 15.76H1416.78V17.408H1402.44V15.76ZM1405.08 6.192V7.12H1407.34V6.192H1405.08ZM1403.37 5.04H1409.13V8.256H1403.37V5.04ZM1411.79 6.192V7.12H1414.09V6.192H1411.79ZM1410.09 5.04H1415.88V8.256H1410.09V5.04Z" fill="#CACACA"/>
<circle cx="1385.59" cy="34" r="5" fill="#CACACA"/>
</g>
<defs>
<linearGradient id="paint0_linear_4286_2304" x1="0.406311" y1="12" x2="64.4063" y2="12" gradientUnits="userSpaceOnUse">
<stop stop-color="#FF9F51"/>
<stop offset="1" stop-color="#F9D024"/>
</linearGradient>
<linearGradient id="paint1_linear_4286_2304" x1="27.4063" y1="34" x2="37.4063" y2="34" gradientUnits="userSpaceOnUse">
<stop stop-color="#FF9F51"/>
<stop offset="1" stop-color="#F9D024"/>
</linearGradient>
<clipPath id="clip0_4286_2304">
<rect width="64" height="39" fill="white" transform="translate(0.406311)"/>
</clipPath>
<clipPath id="clip1_4286_2304">
<rect width="64" height="39" fill="white" transform="translate(677)"/>
</clipPath>
<clipPath id="clip2_4286_2304">
<rect width="64" height="39" fill="white" transform="translate(1353.59)"/>
</clipPath>
</defs>
</svg>
