<svg width="1418" height="39" viewBox="0 0 1418 39" fill="none" xmlns="http://www.w3.org/2000/svg">
<rect x="32.4063" y="34" width="1353.19" height="1" fill="#CACACA"/>
<g clip-path="url(#clip0_4299_3453)">
<path d="M9.19031 12.176H15.1743V13.584H9.19031V12.176ZM9.19031 14.704H15.1743V16.112H9.19031V14.704ZM9.15831 17.248H15.9263V18.816H9.15831V17.248ZM6.80631 5.904H15.8463V8.816H14.1343V7.504H8.42231V8.816H6.80631V5.904ZM11.3503 10.832H13.1103V18H11.3503V10.832ZM9.78231 9.52H15.5263V11.104H9.78231V19.44H7.97431V11.184L9.60631 9.52H9.78231ZM10.6143 4.384L12.4383 4.736C12.0116 6.464 11.3983 8.00533 10.5983 9.36C9.79831 10.7147 8.81164 11.824 7.63831 12.688C7.55298 12.5707 7.43031 12.4213 7.27031 12.24C7.12098 12.048 6.96098 11.8613 6.79031 11.68C6.61964 11.4987 6.47031 11.3547 6.34231 11.248C7.43031 10.5333 8.33164 9.584 9.04631 8.4C9.76098 7.216 10.2836 5.87733 10.6143 4.384ZM12.3423 7.904L14.1023 8.272C13.8996 8.70933 13.6916 9.136 13.4783 9.552C13.2756 9.95733 13.089 10.3093 12.9183 10.608L11.4783 10.24C11.6276 9.90933 11.7876 9.52533 11.9583 9.088C12.129 8.65067 12.257 8.256 12.3423 7.904ZM1.17431 5.36H6.93431V7.104H1.17431V5.36ZM2.96631 10.064H6.69431V17.504H2.96631V15.856H5.07831V11.712H2.96631V10.064ZM2.82231 6.288L4.61431 6.56C4.46498 7.712 4.26231 8.84267 4.00631 9.952C3.75031 11.0507 3.42498 12.0853 3.03031 13.056C2.64631 14.016 2.18764 14.8587 1.65431 15.584C1.60098 15.4347 1.51031 15.2427 1.38231 15.008C1.26498 14.7733 1.13698 14.5387 0.998311 14.304C0.870311 14.0693 0.747644 13.8827 0.630311 13.744C1.04631 13.1573 1.39298 12.4693 1.67031 11.68C1.95831 10.8907 2.19298 10.0373 2.37431 9.12C2.56631 8.20267 2.71564 7.25867 2.82231 6.288ZM2.21431 10.064H3.76631V18.752H2.21431V10.064ZM25.9743 5.696H27.7023C27.6276 6.336 27.5156 6.98133 27.3663 7.632C27.2276 8.272 27.0143 8.89067 26.7263 9.488C26.4383 10.0747 26.0543 10.6293 25.5743 11.152C25.105 11.664 24.497 12.112 23.7503 12.496C23.6543 12.272 23.4996 12.0267 23.2863 11.76C23.073 11.4933 22.8703 11.2853 22.6783 11.136C23.3183 10.8267 23.841 10.464 24.2463 10.048C24.6516 9.632 24.9716 9.184 25.2063 8.704C25.441 8.224 25.6116 7.728 25.7183 7.216C25.8356 6.704 25.921 6.19733 25.9743 5.696ZM23.2063 8.432L24.1023 7.104C24.6356 7.25333 25.1796 7.44533 25.7343 7.68C26.2996 7.91467 26.833 8.16 27.3343 8.416C27.8463 8.672 28.2783 8.912 28.6303 9.136L27.7183 10.624C27.377 10.368 26.9503 10.1067 26.4383 9.84C25.937 9.56267 25.4036 9.30133 24.8383 9.056C24.2836 8.8 23.7396 8.592 23.2063 8.432ZM29.6383 5.024H31.4303C31.4303 5.024 31.4303 5.072 31.4303 5.168C31.4303 5.25333 31.425 5.35467 31.4143 5.472C31.4143 5.57867 31.409 5.664 31.3983 5.728C31.3556 6.944 31.3023 7.94133 31.2383 8.72C31.1743 9.488 31.0943 10.0853 30.9983 10.512C30.913 10.928 30.801 11.2213 30.6623 11.392C30.5023 11.5947 30.337 11.7387 30.1663 11.824C30.0063 11.9093 29.8143 11.968 29.5903 12C29.3983 12.0427 29.1476 12.0693 28.8383 12.08C28.529 12.08 28.1983 12.0747 27.8463 12.064C27.8356 11.7973 27.7823 11.504 27.6863 11.184C27.601 10.8533 27.4943 10.5707 27.3663 10.336C27.6436 10.368 27.8943 10.3893 28.1183 10.4C28.3423 10.4 28.5183 10.4 28.6463 10.4C28.849 10.4107 29.009 10.3467 29.1263 10.208C29.201 10.1013 29.2703 9.88267 29.3343 9.552C29.3983 9.21067 29.4516 8.69867 29.4943 8.016C29.5476 7.33333 29.5956 6.432 29.6383 5.312V5.024ZM24.9663 13.664H26.7263V17.152C26.7263 17.376 26.7476 17.52 26.7903 17.584C26.833 17.6373 26.929 17.664 27.0783 17.664C27.1103 17.664 27.1636 17.664 27.2383 17.664C27.313 17.664 27.393 17.664 27.4783 17.664C27.5636 17.664 27.6436 17.664 27.7183 17.664C27.8036 17.664 27.8623 17.664 27.8943 17.664C28.001 17.664 28.081 17.6267 28.1343 17.552C28.1876 17.4773 28.2303 17.3227 28.2623 17.088C28.2943 16.8427 28.3156 16.4747 28.3263 15.984C28.433 16.0693 28.577 16.16 28.7583 16.256C28.9503 16.3413 29.1423 16.4213 29.3343 16.496C29.537 16.56 29.7183 16.6187 29.8783 16.672C29.825 17.3653 29.729 17.904 29.5903 18.288C29.4623 18.6827 29.2756 18.9493 29.0303 19.088C28.7956 19.2373 28.4863 19.312 28.1023 19.312C28.0276 19.312 27.9263 19.312 27.7983 19.312C27.681 19.312 27.5583 19.312 27.4303 19.312C27.3023 19.312 27.1796 19.312 27.0623 19.312C26.945 19.312 26.849 19.312 26.7743 19.312C26.2836 19.312 25.905 19.2427 25.6383 19.104C25.3823 18.976 25.2063 18.7573 25.1103 18.448C25.0143 18.1387 24.9663 17.7173 24.9663 17.184V13.664ZM23.3343 14.288L24.8543 14.688C24.8116 15.1573 24.7423 15.632 24.6463 16.112C24.5503 16.592 24.4223 17.0453 24.2623 17.472C24.1023 17.888 23.889 18.256 23.6223 18.576L22.2143 17.728C22.4383 17.4507 22.625 17.1307 22.7743 16.768C22.9236 16.3947 23.041 15.9947 23.1263 15.568C23.2223 15.1413 23.2916 14.7147 23.3343 14.288ZM25.3343 12.56L26.4383 11.44C26.7796 11.6107 27.1316 11.8133 27.4943 12.048C27.857 12.272 28.1983 12.512 28.5183 12.768C28.849 13.0133 29.1156 13.248 29.3183 13.472L28.1183 14.72C27.937 14.4853 27.6916 14.24 27.3823 13.984C27.0836 13.728 26.753 13.4773 26.3903 13.232C26.0276 12.976 25.6756 12.752 25.3343 12.56ZM28.8543 14.544L30.4063 13.92C30.6943 14.3253 30.9556 14.7627 31.1903 15.232C31.425 15.7013 31.6276 16.1707 31.7983 16.64C31.969 17.0987 32.0916 17.5147 32.1663 17.888L30.4703 18.592C30.4276 18.208 30.3263 17.7867 30.1663 17.328C30.0063 16.8587 29.8143 16.3787 29.5903 15.888C29.3663 15.3973 29.121 14.9493 28.8543 14.544ZM23.4303 5.024H30.4543V6.624H23.4303V5.024ZM17.6063 9.312H22.2943V10.768H17.6063V9.312ZM17.6703 4.912H22.2623V6.352H17.6703V4.912ZM17.6063 11.504H22.2943V12.944H17.6063V11.504ZM16.8863 7.056H22.7263V8.576H16.8863V7.056ZM18.4383 13.712H22.3263V18.592H18.4383V17.072H20.7263V15.232H18.4383V13.712ZM17.5743 13.712H19.1583V19.216H17.5743V13.712ZM39.7183 5.68H47.9423V7.52H39.7183V5.68ZM43.2223 6.416H45.1743V17.152C45.1743 17.696 45.1103 18.112 44.9823 18.4C44.8543 18.6987 44.6196 18.928 44.2783 19.088C43.9476 19.2373 43.521 19.3333 42.9983 19.376C42.4863 19.4187 41.8676 19.4347 41.1423 19.424C41.1316 19.2427 41.089 19.0347 41.0143 18.8C40.9396 18.5653 40.8596 18.3307 40.7743 18.096C40.689 17.8613 40.5983 17.6533 40.5023 17.472C40.8223 17.4827 41.1423 17.4933 41.4623 17.504C41.7823 17.5147 42.0596 17.52 42.2943 17.52C42.5396 17.5093 42.7103 17.504 42.8063 17.504C42.9556 17.504 43.0623 17.4827 43.1263 17.44C43.1903 17.3867 43.2223 17.2853 43.2223 17.136V6.416ZM33.6703 9.312H38.8383V10.768H33.6703V9.312ZM33.7663 4.912H38.8543V6.352H33.7663V4.912ZM33.6703 11.504H38.8383V12.944H33.6703V11.504ZM32.8863 7.056H39.4623V8.576H32.8863V7.056ZM34.5503 13.712H38.7903V18.592H34.5503V17.072H37.0943V15.232H34.5503V13.712ZM33.6223 13.712H35.2863V19.216H33.6223V13.712ZM55.3503 9.744H57.3343V19.44H55.3503V9.744ZM52.6463 12.592V13.44H60.2143V12.592H52.6463ZM52.6463 10.352V11.216H60.2143V10.352H52.6463ZM50.7743 8.88H62.1983V14.912H50.7743V8.88ZM49.2543 15.744H63.5903V17.408H49.2543V15.744ZM51.8943 6.176V7.104H54.1503V6.176H51.8943ZM50.1983 5.024H55.9583V8.256H50.1983V5.024ZM58.6143 6.176V7.104H60.9023V6.176H58.6143ZM56.9023 5.024H62.7103V8.256H56.9023V5.024Z" fill="#CACACA"/>
<circle cx="32.4063" cy="34" r="5" fill="#CACACA"/>
</g>
<g clip-path="url(#clip1_4299_3453)">
<path d="M682.584 5.52H692.28V7.072H682.584V5.52ZM682.088 14.88H692.536V16.48H682.088V14.88ZM686.472 4.4H688.328V8.56H686.472V4.4ZM685.48 10.688V11.328H689.352V10.688H685.48ZM685.48 12.432V13.056H689.352V12.432H685.48ZM685.48 8.992V9.6H689.352V8.992H685.48ZM683.752 7.808H691.176V14.224H683.752V7.808ZM687.992 17.296L689.304 16.352C689.709 16.576 690.115 16.8213 690.52 17.088C690.936 17.344 691.331 17.6 691.704 17.856C692.077 18.112 692.392 18.3467 692.648 18.56L690.888 19.44C690.675 19.2373 690.408 19.008 690.088 18.752C689.768 18.5067 689.427 18.256 689.064 18C688.701 17.744 688.344 17.5093 687.992 17.296ZM685.016 16.432L686.824 17.056C686.344 17.536 685.752 17.9893 685.048 18.416C684.344 18.8427 683.661 19.1893 683 19.456C682.893 19.3387 682.755 19.1947 682.584 19.024C682.413 18.8533 682.237 18.6827 682.056 18.512C681.885 18.352 681.725 18.2187 681.576 18.112C682.237 17.92 682.883 17.68 683.512 17.392C684.141 17.0933 684.643 16.7733 685.016 16.432ZM677.704 8.224H682.552V10.048H677.704V8.224ZM679.336 4.656H681.128V15.28H679.336V4.656ZM677.352 15.12C677.8 14.96 678.307 14.7733 678.872 14.56C679.437 14.336 680.04 14.096 680.68 13.84C681.32 13.5733 681.955 13.3067 682.584 13.04L683.016 14.816C682.184 15.2 681.336 15.5893 680.472 15.984C679.608 16.3787 678.808 16.7307 678.072 17.04L677.352 15.12ZM700.024 4.416H701.96V6.608H700.024V4.416ZM694.056 5.52H707.944V8.816H706.136V7.152H695.8V8.816H694.056V5.52ZM699.656 7.312L700.792 8.48C700.248 8.704 699.635 8.90133 698.952 9.072C698.28 9.24267 697.645 9.376 697.048 9.472C697.005 9.312 696.941 9.12 696.856 8.896C696.771 8.672 696.685 8.47467 696.6 8.304C696.963 8.22933 697.331 8.13867 697.704 8.032C698.077 7.92533 698.435 7.81333 698.776 7.696C699.128 7.568 699.421 7.44 699.656 7.312ZM696.008 8.016L697.704 8.32V12.624H696.008V8.016ZM696.008 11.84H704.264V9.312H701.352V8.016H705.992V13.136H696.008V11.84ZM696.504 9.936H700.36V11.2H696.504V9.936ZM701.608 9.936H705.064V11.2H701.608V9.936ZM698.104 12.368L699.816 12.88C699.443 13.4987 698.984 14.08 698.44 14.624C697.896 15.1573 697.299 15.6373 696.648 16.064C696.008 16.48 695.347 16.8373 694.664 17.136C694.589 17.0187 694.483 16.864 694.344 16.672C694.216 16.48 694.077 16.2933 693.928 16.112C693.789 15.92 693.661 15.7653 693.544 15.648C694.184 15.424 694.792 15.152 695.368 14.832C695.955 14.512 696.483 14.144 696.952 13.728C697.432 13.312 697.816 12.8587 698.104 12.368ZM697.848 13.856H706.216V15.376H696.344L697.848 13.856ZM705.624 13.856H707.512C707.512 13.856 707.507 13.9413 707.496 14.112C707.496 14.2827 707.491 14.4213 707.48 14.528C707.448 15.4133 707.4 16.144 707.336 16.72C707.272 17.2853 707.192 17.7333 707.096 18.064C707.011 18.3947 706.899 18.6347 706.76 18.784C706.589 18.976 706.403 19.1093 706.2 19.184C706.008 19.2693 705.789 19.3227 705.544 19.344C705.331 19.376 705.043 19.392 704.68 19.392C704.328 19.4027 703.949 19.3973 703.544 19.376C703.533 19.12 703.48 18.832 703.384 18.512C703.288 18.2027 703.171 17.9413 703.032 17.728C703.373 17.76 703.688 17.7813 703.976 17.792C704.264 17.8027 704.477 17.8027 704.616 17.792C704.733 17.792 704.835 17.7867 704.92 17.776C705.005 17.7547 705.08 17.7067 705.144 17.632C705.229 17.5467 705.299 17.3813 705.352 17.136C705.416 16.88 705.469 16.5067 705.512 16.016C705.555 15.5253 705.592 14.8853 705.624 14.096V13.856ZM696.2 15.664L697.72 16.112C697.603 16.6987 697.443 17.2693 697.24 17.824C697.037 18.3787 696.739 18.8427 696.344 19.216L694.92 18.416C695.261 18.0853 695.533 17.6747 695.736 17.184C695.949 16.6933 696.104 16.1867 696.2 15.664ZM698.2 16.064L699.64 15.904C699.789 16.3627 699.907 16.8587 699.992 17.392C700.088 17.9147 700.131 18.3627 700.12 18.736L698.6 18.944C698.611 18.5707 698.579 18.1173 698.504 17.584C698.44 17.04 698.339 16.5333 698.2 16.064ZM700.376 16.096L701.704 15.76C701.917 16.1333 702.099 16.5387 702.248 16.976C702.408 17.4027 702.509 17.776 702.552 18.096L701.128 18.464C701.096 18.144 701.005 17.7653 700.856 17.328C700.717 16.88 700.557 16.4693 700.376 16.096ZM702.472 16.016L703.704 15.488C703.917 15.712 704.125 15.9733 704.328 16.272C704.541 16.56 704.696 16.816 704.792 17.04L703.496 17.632C703.411 17.3973 703.267 17.1307 703.064 16.832C702.872 16.5227 702.675 16.2507 702.472 16.016ZM710.264 5.952L711.112 4.64C711.475 4.72533 711.864 4.83733 712.28 4.976C712.696 5.104 713.101 5.24267 713.496 5.392C713.901 5.53067 714.237 5.664 714.504 5.792L713.64 7.248C713.384 7.12 713.064 6.976 712.68 6.816C712.296 6.64533 711.891 6.48533 711.464 6.336C711.037 6.18667 710.637 6.05867 710.264 5.952ZM709.56 8.656C710.147 8.54933 710.851 8.4 711.672 8.208C712.504 8.016 713.341 7.824 714.184 7.632L714.36 9.136C713.667 9.36 712.963 9.57333 712.248 9.776C711.544 9.968 710.888 10.1493 710.28 10.32L709.56 8.656ZM716.648 5.472H722.792V6.832H715.576L716.648 5.472ZM722.344 5.472H722.616L722.904 5.408L724.168 5.744C723.965 6.17067 723.725 6.608 723.448 7.056C723.181 7.504 722.92 7.87733 722.664 8.176L721.16 7.712C721.373 7.456 721.592 7.14133 721.816 6.768C722.04 6.384 722.216 6.02667 722.344 5.696V5.472ZM718.296 6.048H720.008C719.933 6.61333 719.805 7.13067 719.624 7.6C719.443 8.05867 719.176 8.46933 718.824 8.832C718.483 9.184 718.019 9.49333 717.432 9.76C716.856 10.0267 716.115 10.2507 715.208 10.432C715.133 10.2293 715.011 9.99467 714.84 9.728C714.669 9.45067 714.504 9.232 714.344 9.072C715.112 8.944 715.741 8.78933 716.232 8.608C716.723 8.42667 717.101 8.21867 717.368 7.984C717.645 7.73867 717.853 7.456 717.992 7.136C718.131 6.816 718.232 6.45333 718.296 6.048ZM719.912 6.448C719.976 6.74667 720.083 7.03467 720.232 7.312C720.392 7.58933 720.632 7.84533 720.952 8.08C721.272 8.304 721.72 8.50667 722.296 8.688C722.872 8.85867 723.613 8.99733 724.52 9.104C724.339 9.296 724.157 9.54667 723.976 9.856C723.795 10.1653 723.656 10.4427 723.56 10.688C722.568 10.528 721.752 10.304 721.112 10.016C720.483 9.728 719.987 9.40267 719.624 9.04C719.272 8.67733 719 8.288 718.808 7.872C718.627 7.44533 718.483 7.024 718.376 6.608L719.912 6.448ZM716.6 4.4L718.296 4.688C717.987 5.31733 717.624 5.92533 717.208 6.512C716.792 7.088 716.28 7.62133 715.672 8.112C715.501 7.94133 715.272 7.77067 714.984 7.6C714.707 7.42933 714.451 7.296 714.216 7.2C714.803 6.79467 715.293 6.34667 715.688 5.856C716.083 5.35467 716.387 4.86933 716.6 4.4ZM713.592 13.12V13.792H720.552V13.12H713.592ZM713.592 14.88V15.584H720.552V14.88H713.592ZM713.592 11.344V12.032H720.552V11.344H713.592ZM711.736 10.208H722.488V16.72H711.736V10.208ZM717.896 17.568L719.496 16.656C720.072 16.8587 720.653 17.0773 721.24 17.312C721.837 17.536 722.403 17.7653 722.936 18C723.48 18.224 723.939 18.4267 724.312 18.608L722.072 19.472C721.773 19.3013 721.4 19.104 720.952 18.88C720.504 18.656 720.019 18.4267 719.496 18.192C718.984 17.968 718.451 17.76 717.896 17.568ZM714.36 16.592L716.104 17.392C715.677 17.6693 715.176 17.9413 714.6 18.208C714.024 18.4747 713.432 18.7147 712.824 18.928C712.216 19.152 711.64 19.3387 711.096 19.488C710.979 19.36 710.835 19.2053 710.664 19.024C710.504 18.8533 710.333 18.6773 710.152 18.496C709.971 18.3253 709.811 18.1867 709.672 18.08C710.237 17.9733 710.808 17.8453 711.384 17.696C711.971 17.5467 712.52 17.376 713.032 17.184C713.555 16.992 713.997 16.7947 714.36 16.592ZM728.04 4.48H729.8V19.392H728.04V4.48ZM725.608 9.744H732.168V11.536H725.608V9.744ZM727.688 10.688L728.76 11.216C728.621 11.7493 728.461 12.3147 728.28 12.912C728.099 13.4987 727.896 14.0853 727.672 14.672C727.448 15.2587 727.213 15.8133 726.968 16.336C726.723 16.848 726.461 17.296 726.184 17.68C726.131 17.4773 726.051 17.2587 725.944 17.024C725.848 16.7787 725.741 16.5387 725.624 16.304C725.517 16.0693 725.416 15.8667 725.32 15.696C725.64 15.3013 725.949 14.816 726.248 14.24C726.557 13.6533 726.84 13.0507 727.096 12.432C727.352 11.8027 727.549 11.2213 727.688 10.688ZM729.784 11.616C729.869 11.7013 729.992 11.8347 730.152 12.016C730.323 12.1973 730.509 12.4053 730.712 12.64C730.915 12.864 731.107 13.0933 731.288 13.328C731.48 13.552 731.651 13.7547 731.8 13.936C731.96 14.1173 732.072 14.256 732.136 14.352L730.968 15.856C730.861 15.6213 730.723 15.3493 730.552 15.04C730.381 14.72 730.195 14.3947 729.992 14.064C729.789 13.7227 729.592 13.4027 729.4 13.104C729.208 12.8053 729.043 12.56 728.904 12.368L729.784 11.616ZM725.592 5.712L726.936 5.36C727.075 5.744 727.197 6.16 727.304 6.608C727.421 7.056 727.517 7.49333 727.592 7.92C727.667 8.34667 727.72 8.73067 727.752 9.072L726.312 9.456C726.301 9.11467 726.259 8.73067 726.184 8.304C726.12 7.86667 726.035 7.424 725.928 6.976C725.832 6.51733 725.72 6.096 725.592 5.712ZM730.856 5.28L732.472 5.632C732.344 6.06933 732.205 6.51733 732.056 6.976C731.907 7.43467 731.757 7.87733 731.608 8.304C731.459 8.72 731.32 9.088 731.192 9.408L729.976 9.056C730.093 8.71467 730.205 8.32533 730.312 7.888C730.429 7.44 730.536 6.98667 730.632 6.528C730.728 6.06933 730.803 5.65333 730.856 5.28ZM736.92 4.4H738.712V19.424H736.92V4.4ZM732.136 14.416L740.36 12.944L740.648 14.72L732.424 16.208L732.136 14.416ZM733.032 6.576L733.976 5.28C734.275 5.45067 734.584 5.648 734.904 5.872C735.235 6.096 735.544 6.32533 735.832 6.56C736.131 6.79467 736.365 7.01333 736.536 7.216L735.544 8.656C735.384 8.44267 735.16 8.21333 734.872 7.968C734.595 7.72267 734.296 7.47733 733.976 7.232C733.656 6.98667 733.341 6.768 733.032 6.576ZM732.312 10.608L733.208 9.232C733.528 9.392 733.859 9.584 734.2 9.808C734.541 10.0213 734.867 10.24 735.176 10.464C735.485 10.6773 735.736 10.8853 735.928 11.088L734.952 12.624C734.781 12.4213 734.547 12.2027 734.248 11.968C733.949 11.7227 733.629 11.4827 733.288 11.248C732.957 11.0027 732.632 10.7893 732.312 10.608Z" fill="#CACACA"/>
<circle cx="709" cy="34" r="5" fill="#CACACA"/>
</g>
<g clip-path="url(#clip2_4299_3453)">
<path d="M1357.4 8.944H1365.71V10.688H1357.4V8.944ZM1354.43 11.84H1368.76V13.632H1354.43V11.84ZM1358.3 13.28H1360.38C1360.3 14.016 1360.18 14.704 1360.01 15.344C1359.84 15.9733 1359.57 16.5493 1359.19 17.072C1358.83 17.584 1358.32 18.0427 1357.66 18.448C1357 18.8533 1356.14 19.1947 1355.1 19.472C1355.03 19.3013 1354.94 19.1093 1354.81 18.896C1354.69 18.6827 1354.56 18.4693 1354.41 18.256C1354.26 18.0533 1354.12 17.888 1353.98 17.76C1354.9 17.5573 1355.63 17.312 1356.17 17.024C1356.72 16.736 1357.14 16.4107 1357.42 16.048C1357.71 15.6747 1357.91 15.2587 1358.03 14.8C1358.15 14.3307 1358.24 13.824 1358.3 13.28ZM1362.43 12.96H1364.36V16.864C1364.36 17.12 1364.4 17.2853 1364.47 17.36C1364.56 17.424 1364.75 17.456 1365.03 17.456C1365.1 17.456 1365.2 17.456 1365.34 17.456C1365.48 17.456 1365.63 17.456 1365.8 17.456C1365.97 17.456 1366.13 17.456 1366.28 17.456C1366.43 17.456 1366.55 17.456 1366.63 17.456C1366.8 17.456 1366.93 17.4133 1367.02 17.328C1367.11 17.2427 1367.18 17.0613 1367.21 16.784C1367.25 16.496 1367.28 16.0747 1367.31 15.52C1367.44 15.616 1367.62 15.712 1367.82 15.808C1368.02 15.904 1368.23 15.9893 1368.44 16.064C1368.67 16.1387 1368.86 16.2027 1369.03 16.256C1368.97 17.024 1368.86 17.6213 1368.7 18.048C1368.54 18.4853 1368.31 18.784 1368.01 18.944C1367.72 19.1147 1367.32 19.2 1366.81 19.2C1366.71 19.2 1366.57 19.2 1366.38 19.2C1366.2 19.2 1365.99 19.2 1365.77 19.2C1365.56 19.2 1365.35 19.2 1365.16 19.2C1364.98 19.2 1364.84 19.2 1364.75 19.2C1364.13 19.2 1363.65 19.1307 1363.31 18.992C1362.98 18.8533 1362.75 18.6133 1362.62 18.272C1362.49 17.9307 1362.43 17.472 1362.43 16.896V12.96ZM1360.52 4.416H1362.57V7.328H1360.52V4.416ZM1354.71 5.952H1368.46V9.76H1366.41V7.776H1356.67V9.76H1354.71V5.952ZM1372.51 10.432H1376.2V12.176H1372.51V10.432ZM1375.47 10.432H1377.32C1377.32 10.432 1377.32 10.4747 1377.32 10.56C1377.32 10.6453 1377.32 10.7467 1377.32 10.864C1377.32 10.9707 1377.32 11.0613 1377.32 11.136C1377.3 12.2667 1377.27 13.1947 1377.24 13.92C1377.21 14.6347 1377.16 15.1947 1377.08 15.6C1377.02 15.9947 1376.93 16.272 1376.81 16.432C1376.65 16.6347 1376.48 16.7787 1376.3 16.864C1376.13 16.9493 1375.92 17.0133 1375.69 17.056C1375.48 17.0987 1375.2 17.1253 1374.87 17.136C1374.55 17.136 1374.2 17.1307 1373.82 17.12C1373.81 16.8427 1373.75 16.5333 1373.66 16.192C1373.56 15.8507 1373.44 15.5627 1373.31 15.328C1373.59 15.3493 1373.86 15.3653 1374.11 15.376C1374.36 15.3867 1374.55 15.392 1374.68 15.392C1374.79 15.392 1374.88 15.3813 1374.95 15.36C1375.04 15.328 1375.11 15.2747 1375.16 15.2C1375.24 15.104 1375.29 14.9067 1375.32 14.608C1375.36 14.2987 1375.4 13.8347 1375.42 13.216C1375.44 12.5867 1375.46 11.7547 1375.47 10.72V10.432ZM1380.27 5.408L1381.43 4.256C1381.73 4.40533 1382.05 4.58133 1382.38 4.784C1382.71 4.98667 1383.02 5.18933 1383.32 5.392C1383.63 5.59467 1383.88 5.792 1384.07 5.984L1382.84 7.264C1382.66 7.08267 1382.43 6.88 1382.14 6.656C1381.85 6.432 1381.54 6.21333 1381.21 6C1380.88 5.776 1380.56 5.57867 1380.27 5.408ZM1382.15 9.536L1384.11 10C1383.43 12.08 1382.52 13.92 1381.35 15.52C1380.19 17.1093 1378.82 18.3947 1377.23 19.376C1377.14 19.2373 1377.01 19.0667 1376.84 18.864C1376.67 18.672 1376.5 18.4747 1376.31 18.272C1376.13 18.08 1375.97 17.92 1375.83 17.792C1377.37 16.96 1378.67 15.84 1379.74 14.432C1380.8 13.0133 1381.61 11.3813 1382.15 9.536ZM1372.6 6.8H1384.95V8.688H1372.6V6.8ZM1371.32 6.8H1373.34V11.52C1373.34 12.1173 1373.32 12.7733 1373.27 13.488C1373.23 14.192 1373.15 14.9173 1373.03 15.664C1372.92 16.4 1372.74 17.1093 1372.51 17.792C1372.28 18.4747 1371.99 19.088 1371.63 19.632C1371.52 19.4933 1371.36 19.3387 1371.15 19.168C1370.94 18.9973 1370.74 18.8267 1370.52 18.656C1370.32 18.496 1370.14 18.384 1369.99 18.32C1370.4 17.68 1370.69 16.9653 1370.87 16.176C1371.07 15.376 1371.19 14.5707 1371.24 13.76C1371.3 12.9493 1371.32 12.1973 1371.32 11.504V6.8ZM1377.82 4.416H1379.83C1379.81 5.728 1379.85 7.01333 1379.95 8.272C1380.04 9.53067 1380.18 10.7093 1380.36 11.808C1380.55 12.896 1380.78 13.8613 1381.03 14.704C1381.29 15.536 1381.57 16.1867 1381.88 16.656C1382.19 17.1253 1382.51 17.36 1382.83 17.36C1383.01 17.36 1383.15 17.1413 1383.24 16.704C1383.35 16.2667 1383.42 15.5467 1383.47 14.544C1383.69 14.7573 1383.95 14.9653 1384.25 15.168C1384.56 15.3707 1384.84 15.52 1385.1 15.616C1385 16.608 1384.86 17.376 1384.67 17.92C1384.47 18.4533 1384.22 18.8213 1383.9 19.024C1383.58 19.2267 1383.17 19.328 1382.67 19.328C1382.09 19.328 1381.57 19.1307 1381.1 18.736C1380.64 18.3413 1380.23 17.792 1379.87 17.088C1379.51 16.384 1379.21 15.5573 1378.95 14.608C1378.7 13.6587 1378.48 12.6293 1378.31 11.52C1378.15 10.4107 1378.03 9.25867 1377.95 8.064C1377.87 6.85867 1377.83 5.64267 1377.82 4.416ZM1392.91 5.68H1401.13V7.52H1392.91V5.68ZM1396.41 6.416H1398.36V17.152C1398.36 17.696 1398.3 18.112 1398.17 18.4C1398.04 18.6987 1397.81 18.928 1397.47 19.088C1397.14 19.2373 1396.71 19.3333 1396.19 19.376C1395.67 19.4187 1395.06 19.4347 1394.33 19.424C1394.32 19.2427 1394.28 19.0347 1394.2 18.8C1394.13 18.5653 1394.05 18.3307 1393.96 18.096C1393.88 17.8613 1393.79 17.6533 1393.69 17.472C1394.01 17.4827 1394.33 17.4933 1394.65 17.504C1394.97 17.5147 1395.25 17.52 1395.48 17.52C1395.73 17.5093 1395.9 17.504 1395.99 17.504C1396.14 17.504 1396.25 17.4827 1396.31 17.44C1396.38 17.3867 1396.41 17.2853 1396.41 17.136V6.416ZM1386.86 9.312H1392.03V10.768H1386.86V9.312ZM1386.95 4.912H1392.04V6.352H1386.95V4.912ZM1386.86 11.504H1392.03V12.944H1386.86V11.504ZM1386.07 7.056H1392.65V8.576H1386.07V7.056ZM1387.74 13.712H1391.98V18.592H1387.74V17.072H1390.28V15.232H1387.74V13.712ZM1386.81 13.712H1388.47V19.216H1386.81V13.712ZM1408.54 9.744H1410.52V19.44H1408.54V9.744ZM1405.83 12.592V13.44H1413.4V12.592H1405.83ZM1405.83 10.352V11.216H1413.4V10.352H1405.83ZM1403.96 8.88H1415.39V14.912H1403.96V8.88ZM1402.44 15.744H1416.78V17.408H1402.44V15.744ZM1405.08 6.176V7.104H1407.34V6.176H1405.08ZM1403.39 5.024H1409.15V8.256H1403.39V5.024ZM1411.8 6.176V7.104H1414.09V6.176H1411.8ZM1410.09 5.024H1415.9V8.256H1410.09V5.024Z" fill="url(#paint0_linear_4299_3453)"/>
<circle cx="1385.59" cy="34" r="5" fill="url(#paint1_linear_4299_3453)"/>
</g>
<defs>
<linearGradient id="paint0_linear_4299_3453" x1="1353.59" y1="12" x2="1417.59" y2="12" gradientUnits="userSpaceOnUse">
<stop stop-color="#FF9F51"/>
<stop offset="1" stop-color="#F9D024"/>
</linearGradient>
<linearGradient id="paint1_linear_4299_3453" x1="1380.59" y1="34" x2="1390.59" y2="34" gradientUnits="userSpaceOnUse">
<stop stop-color="#FF9F51"/>
<stop offset="1" stop-color="#F9D024"/>
</linearGradient>
<clipPath id="clip0_4299_3453">
<rect width="64" height="39" fill="white" transform="translate(0.406311)"/>
</clipPath>
<clipPath id="clip1_4299_3453">
<rect width="64" height="39" fill="white" transform="translate(677)"/>
</clipPath>
<clipPath id="clip2_4299_3453">
<rect width="64" height="39" fill="white" transform="translate(1353.59)"/>
</clipPath>
</defs>
</svg>
